HIERARCHY
ROOT Hips
{
  OFFSET 1.44925e-005 102.336 -0.101585
  CHANNELS 6 Xposition Yposition Zposition Zrotation Xrotation Yrotation
  JOINT LeftUpLeg
  {
    OFFSET 8.9458 -8.66707 0.101652
    CHANNELS 3 Zrotation Xrotation Yrotation
    JOINT LeftLeg
    {
      OFFSET 0 -44.4227 1.3727
      CHANNELS 3 Zrotation Xrotation Yrotation
      JOINT LeftFoot
      {
        OFFSET -0.253549 -42.0924 -1.46059
        CHANNELS 3 Zrotation Xrotation Yrotation
        JOINT LeftToes
        {
          OFFSET -0.04 -4.41509 8.4991
          CHANNELS 3 Zrotation Xrotation Yrotation
          End Site
          {
            OFFSET 0.08 -0.047448 9.77979
          }
        }
      }
    }
  }
  JOINT Spine
  {
    OFFSET 0 11.8905 0
    CHANNELS 3 Zrotation Xrotation Yrotation
    JOINT Spine1
    {
      OFFSET 0 25.6574 0.127663
      CHANNELS 3 Zrotation Xrotation Yrotation
      JOINT RightShoulder
      {
        OFFSET -8.99 -0.362252 -0.22
        CHANNELS 3 Zrotation Xrotation Yrotation
        JOINT RightArm
        {
          OFFSET -10.2827 -0.00338 0.322123
          CHANNELS 3 Zrotation Xrotation Yrotation
          JOINT RightForeArm
          {
            OFFSET -26.364 0.099144 -1.42434
            CHANNELS 3 Zrotation Xrotation Yrotation
            JOINT RightHand
            {
              OFFSET -22.0324 0.085362 1.02216
              CHANNELS 3 Zrotation Xrotation Yrotation
              End Site
              {
                OFFSET -13.3284 -0.6 1.50291
              }
            }
          }
        }
      }
      JOINT LeftShoulder1
      {
        OFFSET 8.99 -0.362252 -0.22
        CHANNELS 3 Zrotation Xrotation Yrotation
        JOINT LeftArm
        {
          OFFSET 10.2827 -0.00337999 0.322123
          CHANNELS 3 Zrotation Xrotation Yrotation
          JOINT LeftForeArm
          {
            OFFSET 26.2597 0.099144 -1.42434
            CHANNELS 3 Zrotation Xrotation Yrotation
            JOINT LeftHand
            {
              OFFSET 22.0902 0.085362 1.02216
              CHANNELS 3 Zrotation Xrotation Yrotation
              End Site
              {
                OFFSET 13.419 -0.6 1.50291
              }
            }
          }
        }
      }
      JOINT Head
      {
        OFFSET 0 8.73416 0.011341
        CHANNELS 3 Zrotation Xrotation Yrotation
        End Site
        {
          OFFSET -0.29 12.7742 2.51395
        }
      }
    }
  }
  JOINT RightUpLeg
  {
    OFFSET -8.9458 -8.66707 0.101652
    CHANNELS 3 Zrotation Xrotation Yrotation
    JOINT RightLeg
    {
      OFFSET 0 -44.4227 1.3727
      CHANNELS 3 Zrotation Xrotation Yrotation
      JOINT RightFoot
      {
        OFFSET 0.253549 -42.0924 -1.46059
        CHANNELS 3 Zrotation Xrotation Yrotation
        JOINT RightToes
        {
          OFFSET 0.04 -4.41509 8.4991
          CHANNELS 3 Zrotation Xrotation Yrotation
          End Site
          {
            OFFSET -0.08 -0.137448 9.77979
          }
        }
      }
    }
  }
}
MOTION
Frames:	8
Frame Time:	0.0333333
28.9952 101.962 3.66751 -7.69296 0.235565 -88.8433 1.82712 7.10024 4.04154 1.38481 11.5413 14.64 -5.04325 -14.0982 -0.212079 -1.2588e-009 8.75279e-006 -1.48356e-008 -1.02994 2.37234 -0.841703 1.78033 4.43444 -1.07516 34.6703 1.72527 0.175443 44.6916 -15.0689 9.277 8.14014 36.144 9.0365 -3.89039 9.79917 -1.92836 -39.9601 3.18015 -3.36926 -32.9343 -14.4096 6.08969 -0.0576362 32.147 -20.2206 5.82328 9.61819 -0.917488 -2.0459 2.822 -18.3581 -0.353481 5.3385 -4.41947 -0.291608 11.4851 -10.8925 4.10276 -13.1502 -0.0156853 0.0462048 0.000530889 0.662642 
29.0102 101.973 3.67365 -7.66349 0.229379 -88.8122 1.83189 7.06154 4.02485 1.38905 11.5306 14.5785 -5.08534 -14.0528 -0.212037 -1.2588e-009 8.75279e-006 -1.48356e-008 -1.05664 2.27195 -0.877823 1.76849 4.28352 -1.10944 34.7475 1.72527 0.175347 44.6531 -14.8434 9.21589 8.06906 35.961 9.19462 -4.21335 9.79819 -2.0944 -40.009 3.18746 -3.37736 -32.8693 -14.4143 6.02705 -0.0939936 32.2918 -20.1331 5.82328 9.61819 -0.917488 -1.95675 3.88622 -17.4415 -0.352313 5.31679 -4.40652 -0.293288 11.444 -10.9438 4.03556 -13.1118 -0.0156829 0.0462048 0.000530889 0.662642 
29.0333 101.984 3.68333 -7.60461 0.2249 -88.7666 1.83713 7.01004 4.01666 1.37673 11.4629 14.5212 -5.06641 -14.0017 -0.21199 -1.2588e-009 8.75279e-006 -1.48356e-008 -1.12469 2.02862 -0.905262 1.77591 4.06627 -1.13551 34.9019 1.72527 0.171672 44.5557 -14.6851 9.06251 8.02321 35.8008 9.31007 -4.43343 9.7967 -2.3248 -40.1328 3.20134 -3.38776 -32.6717 -14.4468 5.85184 -0.266097 32.6679 -19.8186 5.82328 9.61819 -0.917488 -1.76231 5.76526 -15.705 -0.346866 5.25818 -4.37596 -0.301699 11.4063 -11.0236 4.00497 -13.0599 -0.015863 0.0462048 0.000530889 0.662642 
29.0616 101.986 3.68932 -7.54289 0.221374 -88.7072 1.8375 6.94175 4.00801 1.36376 11.4078 14.4984 -5.01592 -13.9886 -0.211978 -1.2588e-009 8.75279e-006 -1.48356e-008 -1.24459 1.77576 -0.902598 1.84498 3.91968 -1.14179 35.0417 1.72527 0.156585 44.4381 -14.6964 8.84937 8.07183 35.7484 9.25898 -4.38672 9.79615 -2.40433 -40.2885 3.2163 -3.39541 -32.3986 -14.4839 5.58641 -0.585729 33.1153 -19.3252 5.82328 9.61819 -0.917488 -1.59938 7.43868 -13.8686 -0.349149 5.17705 -4.35807 -0.297025 11.4127 -11.0988 4.04649 -13.035 -0.0166372 0.0462048 0.000530889 0.662642 
29.1045 101.986 3.69559 -7.51394 0.191966 -88.6049 1.8068 6.85254 3.95406 1.38458 11.4416 14.4417 -5.02016 -13.9769 -0.211967 -1.2588e-009 8.75279e-006 -1.48356e-008 -1.38309 1.70861 -0.910575 1.91008 3.7793 -1.15949 35.1797 1.72527 0.138459 44.2852 -14.8093 8.59492 8.15795 35.8182 9.12945 -4.25711 9.79693 -2.2909 -40.4172 3.22895 -3.40225 -32.1634 -14.3598 5.30867 -0.935744 33.4428 -18.8548 5.82328 9.61819 -0.917488 -1.46467 8.41251 -12.2159 -0.3892 5.12034 -4.38718 -0.268959 11.4378 -11.1706 4.09362 -13.0299 -0.0174524 0.0462048 0.000530889 0.662642 
29.1659 101.992 3.70926 -7.5293 0.125448 -88.4625 1.73577 6.77951 3.85632 1.42935 11.5126 14.3307 -5.03702 -13.922 -0.210704 -1.2588e-009 8.75279e-006 -1.48356e-008 -1.48076 1.87007 -0.953054 1.89302 3.55895 -1.19673 35.3428 1.72527 0.127824 44.1133 -15.1459 8.33281 8.26823 36.1766 8.87852 -4.09701 9.79782 -2.15373 -40.6085 3.2496 -3.41625 -31.909 -14.0154 5.10893 -1.16953 33.6115 -18.5778 5.82328 9.61819 -0.917488 -1.21262 8.73598 -10.6509 -0.466475 5.108 -4.4486 -0.243711 11.4546 -11.2493 4.12615 -13.0154 -0.0182699 0.0462048 0.000530889 0.662642 
29.2414 102.001 3.72526 -7.54238 0.0562627 -88.3208 1.66492 6.72409 3.77439 1.45184 11.5209 14.2355 -4.98048 -13.848 -0.205045 -1.2588e-009 8.75279e-006 -1.48356e-008 -1.53046 2.10471 -1.00117 1.84765 3.3305 -1.23343 35.4644 1.72629 0.127315 44.0162 -15.8722 8.12662 8.49642 37.0001 8.31876 -3.87849 9.79797 -2.13037 -41.039 3.29444 -3.4437 -31.437 -13.6461 4.99835 -1.30456 33.6938 -18.4348 5.82328 9.61819 -0.917488 -0.820993 8.57184 -9.11916 -0.535115 5.07712 -4.49186 -0.241854 11.4808 -11.3425 4.14712 -12.9859 -0.0190525 0.0462048 0.000530889 0.662642 
29.3306 102.006 3.73389 -7.49132 0.0181183 -88.1999 1.63415 6.61637 3.7399 1.43564 11.4709 14.1884 -4.88842 -13.7977 -0.198079 -1.2588e-009 8.75279e-006 -1.48356e-008 -1.56962 2.29098 -1.02526 1.86441 3.17748 -1.25931 35.5181 1.73073 0.133209 44.0015 -16.876 7.98466 8.8455 38.1591 7.47836 -3.73304 9.79772 -2.16989 -41.684 3.36062 -3.48137 -30.7237 -13.2888 4.87027 -1.55226 33.7281 -18.1804 5.82328 9.61819 -0.917488 -0.492163 7.97561 -7.75247 -0.569238 4.95145 -4.50207 -0.238298 11.531 -11.4512 4.11823 -12.9533 -0.0197644 0.0462048 0.000530889 0.662642 
